<?xml version="1.0" encoding="iso-8859-1"?>
<!-- Generator: Adobe Illustrator 18.1.1, SVG Export Plug-In . SVG Version: 6.00 Build 0)  -->
<svg version="1.1" id="Capa_1" xmlns="http://www.w3.org/2000/svg" xmlns:xlink="http://www.w3.org/1999/xlink" x="0px" y="0px"
	 viewBox="0 0 56.006 56.006" style="enable-background:new 0 0 56.006 56.006;" xml:space="preserve">
<g>
	<path style="fill:#010002;" d="M20.294,13.952c0-2.337,1.895-4.232,4.232-4.232s4.231,1.895,4.231,4.232s-1.894,4.232-4.231,4.232
		S20.294,16.289,20.294,13.952z M26.515,33.035c-1.947,0.835-4.078,1.42-6.223,1.729v19.451c0,0.989,0.803,1.791,1.792,1.791
		c0.988,0,1.792-0.802,1.792-1.791v-16.49c0.25,0.045,0.505,0.07,0.767,0.07c0.264,0,0.519-0.025,0.769-0.07v10.348
		c0,0.989,0.803,1.792,1.792,1.792c0.989,0,1.792-0.803,1.792-1.792V34.509c0-0.145-0.021-0.281-0.055-0.416
		c0.031-0.211,0.055-0.427,0.055-0.646v-1.473c-0.779,0.305-1.58,0.646-2.413,1.031L26.515,33.035z M19.764,22.921
		c0.156,0.157,0.337,0.274,0.528,0.36v5.256c1.306-0.249,2.587-0.63,3.77-1.134c1.717-0.792,3.344-1.436,4.934-1.946v-2.249
		c0-0.177-0.015-0.35-0.035-0.521l9.178-9.177c0.699-0.699,0.699-1.833,0-2.534c-0.698-0.7-1.834-0.7-2.532,0l-8.589,8.588
		c-0.683-0.445-1.497-0.707-2.373-0.707c-1.08,0-2.067,0.396-2.827,1.048l-8.929-8.929c-0.699-0.7-1.834-0.7-2.534,0
		c-0.701,0.699-0.701,1.834,0,2.534L19.764,22.921z M40.194,23.308c-4.943,0.297-9.207,1.577-14.252,4.281
		c-3.349,1.671-7.466,2.393-10.789,1.878c-1.971-0.273-3.806-1.681-5.748-3.169c-0.789-0.604-1.603-1.229-2.439-1.782l-2.256,3.416
		c0.716,0.474,1.438,1.027,2.203,1.613c2.172,1.668,4.635,3.557,7.646,3.973c1.307,0.203,2.694,0.258,4.108,0.173
		c3.083-0.185,6.3-1.032,9.134-2.455l0.051-0.026c4.561-2.445,8.207-3.551,12.588-3.813c3.117-0.188,4.152,0.44,6.92,2.118
		l0.795,0.479l2.105-3.512l-0.777-0.47C46.535,24.225,44.588,23.044,40.194,23.308z M47.709,9.614L46.542,8.51l-1.104,1.168
		l1.168,1.104L47.709,9.614z M46.574,14.755v-0.804h-0.803v0.804H46.574z M39.653,18.186l0.994-0.995l-0.993-0.993l-0.995,0.996
		L39.653,18.186z M2.046,7.388l1.445,0.517L4.008,6.46L2.563,5.943L2.046,7.388z M7.012,11.024L6.017,9.358l-1.665,0.995
		l0.995,1.666L7.012,11.024z M10.002,17.896l-0.547-1.503l-1.504,0.548l0.548,1.503L10.002,17.896z M16.568,7.394l0.622,0.452
		l0.451-0.622L17.02,6.773L16.568,7.394z M26.821,5.056l-0.707-0.3l-0.3,0.706l0.707,0.3L26.821,5.056z M30.351,7.316l0.125,0.496
		c2.189-0.547,3.455-1.293,3.77-2.24c0.193-0.859-0.18-1.305-0.507-1.699c-0.163-0.196-0.319-0.381-0.396-0.612L33.32,3.203
		c-0.382-0.889-0.814-1.898-0.134-2.918L32.759,0c-0.834,1.251-0.301,2.496,0.1,3.422c0.105,0.322,0.3,0.555,0.486,0.779
		c0.301,0.361,0.537,0.646,0.408,1.236C33.513,6.159,32.304,6.828,30.351,7.316z M16.691,2.571c1.055,0.939,2.146,1.91,1.717,2.839
		l0.465,0.214c0.587-1.273-0.703-2.421-1.841-3.434c-0.562-0.5-1.092-0.972-1.375-1.417l-0.431,0.275
		C15.547,1.552,16.103,2.047,16.691,2.571z M51.539,14.738l-0.008,0.098l0.51,0.046l0.008-0.098
		c0.154-1.698,0.394-2.996,1.912-2.996v-0.512C51.851,11.276,51.664,13.36,51.539,14.738z"/>
</g>
<g>
</g>
<g>
</g>
<g>
</g>
<g>
</g>
<g>
</g>
<g>
</g>
<g>
</g>
<g>
</g>
<g>
</g>
<g>
</g>
<g>
</g>
<g>
</g>
<g>
</g>
<g>
</g>
<g>
</g>
</svg>
